<?xml version="1.0" encoding="UTF-8" standalone="no"?>
<!-- Generator: Adobe Illustrator 19.0.0, SVG Export Plug-In . SVG Version: 6.00 Build 0)  -->

<svg
   version="1.1"
   id="Layer_1"
   x="0px"
   y="0px"
   viewBox="0 0 512.001 512.001"
   style="enable-background:new 0 0 512.001 512.001;"
   xml:space="preserve"
   sodipodi:docname="wolf.svg"
   inkscape:version="1.2.2 (b0a8486541, 2022-12-01)"
   xmlns:inkscape="http://www.inkscape.org/namespaces/inkscape"
   xmlns:sodipodi="http://sodipodi.sourceforge.net/DTD/sodipodi-0.dtd"
   xmlns="http://www.w3.org/2000/svg"
   xmlns:svg="http://www.w3.org/2000/svg"><defs
   id="defs413" /><sodipodi:namedview
   id="namedview411"
   pagecolor="#505050"
   bordercolor="#eeeeee"
   borderopacity="1"
   inkscape:showpageshadow="0"
   inkscape:pageopacity="0"
   inkscape:pagecheckerboard="0"
   inkscape:deskcolor="#505050"
   showgrid="false"
   inkscape:zoom="0.46093662"
   inkscape:cx="256.00049"
   inkscape:cy="257.08524"
   inkscape:window-width="960"
   inkscape:window-height="1160"
   inkscape:window-x="960"
   inkscape:window-y="40"
   inkscape:window-maximized="1"
   inkscape:current-layer="Layer_1" />
<g
   id="g360"
   style="fill:#f2f2f2">
	<g
   id="g358"
   style="fill:#f2f2f2">
		<path
   d="M217.517,226.123c-12.121,0-21.986,9.863-21.991,21.991c0,12.126,9.864,21.991,21.988,21.991h0.002    c12.126,0,21.991-9.865,21.991-21.991S229.643,226.123,217.517,226.123z"
   id="path356"
   style="fill:#f2f2f2" />
	</g>
</g>
<g
   id="g366"
   style="fill:#f2f2f2">
	<g
   id="g364"
   style="fill:#f2f2f2">
		<path
   d="M294.484,226.123c-12.121,0-21.986,9.863-21.991,21.991c0,12.126,9.864,21.991,21.988,21.991h0.002    c12.126,0,21.991-9.865,21.991-21.991S306.61,226.123,294.484,226.123z"
   id="path362"
   style="fill:#f2f2f2" />
	</g>
</g>
<g
   id="g372"
   style="fill:#f2f2f2">
	<g
   id="g370"
   style="fill:#f2f2f2">
		<path
   d="M327.47,352.569c0,15.157-12.331,27.488-27.488,27.488c-15.157,0-27.488-12.331-27.488-27.488v-20.263    c8.122-7.31,15.19-18.589,18.692-29.216c2.67-8.961-4.23-16.375-15.393-16.493c-13.194,0-26.389,0-39.583,0    c-11.162,0.118-18.063,7.533-15.393,16.493c3.502,10.627,10.57,21.906,18.692,29.216v20.263c0,15.157-12.331,27.488-27.488,27.488    c-15.157,0-27.488-12.331-27.488-27.488h-32.986c0,31.587,24.348,57.579,55.259,60.234c2.634,24.82,23.689,44.221,49.196,44.221    c25.507,0,46.563-19.401,49.196-44.221c30.911-2.655,55.259-28.647,55.259-60.234H327.47z M272.494,407.545    c0,9.094-7.398,16.493-16.493,16.493c-9.094,0-16.493-7.399-16.493-16.493v-1.138c6.191-3.174,11.764-7.38,16.493-12.396    c4.729,5.016,10.302,9.223,16.493,12.396V407.545z"
   id="path368"
   style="fill:#f2f2f2" />
	</g>
</g>
<g
   id="g378"
   style="fill:#f2f2f2">
	<g
   id="g376"
   style="fill:#f2f2f2">
		<path
   d="M459.365,271.809c-0.893-48.553-18.88-92.998-48.187-127.565c3.769-11.613,9.408-30.23,13.722-49.857    c11.062-50.318,7.18-78.969-12.217-90.169c-19.399-11.199-46.153-0.233-84.198,34.504c-14.783,13.498-28.041,27.632-36.222,36.707    c-11.77-2.126-23.889-3.24-36.262-3.24c-12.374,0-24.492,1.114-36.262,3.241c-8.181-9.074-21.439-23.208-36.222-36.707    c-38.047-34.739-64.801-45.704-84.2-34.504c-19.397,11.199-23.279,39.85-12.216,90.169c4.315,19.627,9.953,38.243,13.721,49.857    c-29.307,34.568-47.295,79.012-48.187,127.565c-20.42,20.836-33.034,49.35-33.034,80.759v16.493h16.493    c38.853,0,60.002,27.633,84.493,59.631c29.887,39.049,63.761,83.308,135.412,83.308s105.526-44.258,135.412-83.308    c24.49-31.997,45.64-59.631,84.493-59.631h16.493V352.57C492.399,321.161,479.786,292.645,459.365,271.809z M347.483,66.08    c31.941-29.851,45.372-32.804,48.558-33.036c1.393,2.876,5.55,15.984-4.331,58.571c-2.189,9.435-4.681,18.585-7.022,26.577    c-16.847-13.799-35.945-24.945-56.646-32.811C333.778,79.374,340.432,72.669,347.483,66.08z M115.96,33.044    c3.188,0.232,16.617,3.184,48.559,33.035c7.049,6.588,13.705,13.294,19.44,19.3c-20.7,7.866-39.796,19.012-56.646,32.811    c-2.341-7.991-4.831-17.141-7.021-26.576C110.41,49.028,114.567,35.921,115.96,33.044z M256.001,105.175    c84.288,0,154.468,61.51,168.043,141.998c-9.966-4.471-20.674-7.574-31.886-9.056c-7.404-44.186-45.92-77.964-92.176-77.964    c-15.489,0-30.499,3.775-43.981,10.993c-13.485-7.22-28.492-10.993-43.981-10.993c-46.256,0-84.771,33.78-92.176,77.964    c-11.212,1.482-21.92,4.585-31.886,9.056C101.532,166.686,171.713,105.175,256.001,105.175z M365.219,408.645    c-27.697,36.189-53.858,70.37-109.218,70.37s-81.521-34.181-109.218-70.37c-24.189-31.603-49.104-64.159-92.808-71.182    c7.117-38.28,40.766-67.358,81.078-67.358h16.493v-16.493c0-33.345,27.129-60.474,60.474-60.474    c12.425,0,24.369,3.753,34.543,10.852l9.438,6.586l9.438-6.586c10.173-7.099,22.117-10.851,34.543-10.851    c33.345,0,60.474,27.129,60.474,60.474v16.493h16.493c40.312,0,73.962,29.078,81.078,67.358    C414.323,344.486,389.408,377.042,365.219,408.645z"
   id="path374"
   style="fill:#f2f2f2" />
	</g>
</g>
<g
   id="g380">
</g>
<g
   id="g382">
</g>
<g
   id="g384">
</g>
<g
   id="g386">
</g>
<g
   id="g388">
</g>
<g
   id="g390">
</g>
<g
   id="g392">
</g>
<g
   id="g394">
</g>
<g
   id="g396">
</g>
<g
   id="g398">
</g>
<g
   id="g400">
</g>
<g
   id="g402">
</g>
<g
   id="g404">
</g>
<g
   id="g406">
</g>
<g
   id="g408">
</g>
</svg>
